        <svg id="Calque_1" data-name="Calque 1" xmlns="http://www.w3.org/2000/svg" viewBox="1.588 24.263 100.549 109.648" width="200" height="139.231"><defs><style>
      .cls-11 {
        stroke-width: 2.05px;
      }

      .cls-11, .cls-12 {
        fill: none;
        stroke: #222831;
        stroke-miterlimit: 10;
      }

      .cls-12 {
        stroke-width: 2.54px;
      }</style></defs><path class="cls-12" points="724.8 382.9 368.14 172.18 367.93 172.18 11.27 382.9 11.27 950.28 724.6 950.28 724.8 382.9" d="M102.137 53.957 51.877 24.263h-0.03L1.588 53.957V133.911h100.521z"/><path class="cls-11" d="M89.203 69.674v14.492H60.22v-14.492c0 -8.004 6.488 -14.492 14.492 -14.492s14.492 6.488 14.492 14.492Z"/><path class="cls-11" d="M43.698 69.674v14.492H14.715v-14.492c0 -8.004 6.488 -14.492 14.492 -14.492s14.492 6.488 14.492 14.492Z"/><path class="cls-11" d="M89.191 94.95c0 10.928 0.347 12.071 -2.621 16.329 -2.081 2.987 -4.974 4.061 -7.552 5.059 -1.757 0.681 -12.588 4.699 -27.059 4.708 -14.472 -0.009 -25.302 -4.027 -27.059 -4.708 -2.576 -0.998 -5.469 -2.071 -7.552 -5.059 -2.968 -4.259 -2.621 -5.401 -2.621 -16.329"/></svg>
